<mxfile host="Electron" agent="Mozilla/5.0 (Windows NT 10.0; Win64; x64) AppleWebKit/537.36 (KHTML, like Gecko) draw.io/28.1.2 Chrome/138.0.7204.243 Electron/37.4.0 Safari/537.36" version="28.1.2">
  <diagram name="PÃ¡gina-1" id="-0kLb3vF1TpthPxwanWh">
    <mxGraphModel dx="1933" dy="661" grid="1" gridSize="10" guides="1" tooltips="1" connect="1" arrows="1" fold="1" page="1" pageScale="1" pageWidth="827" pageHeight="1169" math="0" shadow="0">
      <root>
        <mxCell id="0" />
        <mxCell id="1" parent="0" />
        <mxCell id="asRpvn_2BDUn43FyMd-X-1" value="&lt;font style=&quot;font-size: 20px; color: rgb(255, 255, 255);&quot;&gt;CAMIONER&lt;/font&gt;" style="rounded=0;whiteSpace=wrap;html=1;fillColor=#0066CC;" parent="1" vertex="1">
          <mxGeometry x="70" y="550" width="120" height="60" as="geometry" />
        </mxCell>
        <mxCell id="asRpvn_2BDUn43FyMd-X-2" value="&lt;font style=&quot;font-size: 20px;&quot;&gt;&lt;u&gt;DNI&lt;/u&gt;&lt;/font&gt;" style="ellipse;whiteSpace=wrap;html=1;fillColor=#FFD966;" parent="1" vertex="1">
          <mxGeometry x="-45" y="667" width="80" height="50" as="geometry" />
        </mxCell>
        <mxCell id="asRpvn_2BDUn43FyMd-X-3" value="&lt;font style=&quot;font-size: 21px;&quot;&gt;NOM&lt;/font&gt;" style="ellipse;whiteSpace=wrap;html=1;fillColor=#FFD966;" parent="1" vertex="1">
          <mxGeometry x="45" y="667" width="80" height="50" as="geometry" />
        </mxCell>
        <mxCell id="asRpvn_2BDUn43FyMd-X-4" value="&lt;font style=&quot;font-size: 15px;&quot;&gt;TELEFON&lt;/font&gt;" style="ellipse;whiteSpace=wrap;html=1;fillColor=#FFD966;" parent="1" vertex="1">
          <mxGeometry x="135" y="667" width="80" height="50" as="geometry" />
        </mxCell>
        <mxCell id="asRpvn_2BDUn43FyMd-X-5" value="&lt;font style=&quot;font-size: 18px;&quot;&gt;SALARI&lt;/font&gt;" style="ellipse;whiteSpace=wrap;html=1;fillColor=#FFD966;" parent="1" vertex="1">
          <mxGeometry x="225" y="667" width="80" height="50" as="geometry" />
        </mxCell>
        <mxCell id="asRpvn_2BDUn43FyMd-X-7" value="" style="endArrow=classic;html=1;rounded=0;entryX=0.5;entryY=0;entryDx=0;entryDy=0;" parent="1" target="asRpvn_2BDUn43FyMd-X-5" edge="1">
          <mxGeometry width="50" height="50" relative="1" as="geometry">
            <mxPoint x="125" y="637" as="sourcePoint" />
            <mxPoint x="395" y="637" as="targetPoint" />
            <Array as="points">
              <mxPoint x="265" y="637" />
            </Array>
          </mxGeometry>
        </mxCell>
        <mxCell id="asRpvn_2BDUn43FyMd-X-8" value="" style="endArrow=classic;html=1;rounded=0;entryX=0.5;entryY=0;entryDx=0;entryDy=0;" parent="1" target="asRpvn_2BDUn43FyMd-X-2" edge="1">
          <mxGeometry width="50" height="50" relative="1" as="geometry">
            <mxPoint x="125" y="637" as="sourcePoint" />
            <mxPoint x="-15" y="657" as="targetPoint" />
            <Array as="points">
              <mxPoint x="-5" y="637" />
            </Array>
          </mxGeometry>
        </mxCell>
        <mxCell id="asRpvn_2BDUn43FyMd-X-9" value="" style="endArrow=none;html=1;rounded=0;entryX=0.5;entryY=1;entryDx=0;entryDy=0;" parent="1" target="asRpvn_2BDUn43FyMd-X-1" edge="1">
          <mxGeometry width="50" height="50" relative="1" as="geometry">
            <mxPoint x="130" y="637" as="sourcePoint" />
            <mxPoint x="490" y="637" as="targetPoint" />
          </mxGeometry>
        </mxCell>
        <mxCell id="asRpvn_2BDUn43FyMd-X-10" value="" style="endArrow=classic;html=1;rounded=0;" parent="1" target="asRpvn_2BDUn43FyMd-X-4" edge="1">
          <mxGeometry width="50" height="50" relative="1" as="geometry">
            <mxPoint x="175" y="637" as="sourcePoint" />
            <mxPoint x="395" y="637" as="targetPoint" />
          </mxGeometry>
        </mxCell>
        <mxCell id="asRpvn_2BDUn43FyMd-X-11" value="" style="endArrow=classic;html=1;rounded=0;" parent="1" target="asRpvn_2BDUn43FyMd-X-3" edge="1">
          <mxGeometry width="50" height="50" relative="1" as="geometry">
            <mxPoint x="85" y="637" as="sourcePoint" />
            <mxPoint x="395" y="637" as="targetPoint" />
          </mxGeometry>
        </mxCell>
        <mxCell id="asRpvn_2BDUn43FyMd-X-12" value="&lt;font style=&quot;color: rgb(255, 255, 255); font-size: 22px;&quot;&gt;PAQUETS&lt;/font&gt;" style="rounded=0;whiteSpace=wrap;html=1;fillColor=#0066CC;" parent="1" vertex="1">
          <mxGeometry x="584" y="550" width="120" height="60" as="geometry" />
        </mxCell>
        <mxCell id="asRpvn_2BDUn43FyMd-X-13" value="&lt;font style=&quot;font-size: 20px;&quot;&gt;&lt;u&gt;CODI&lt;/u&gt;&lt;/font&gt;" style="ellipse;whiteSpace=wrap;html=1;fillColor=#FFD966;" parent="1" vertex="1">
          <mxGeometry x="550" y="650" width="80" height="50" as="geometry" />
        </mxCell>
        <mxCell id="asRpvn_2BDUn43FyMd-X-15" value="" style="endArrow=classic;startArrow=classic;html=1;rounded=0;exitX=1;exitY=0.5;exitDx=0;exitDy=0;entryX=0;entryY=0.5;entryDx=0;entryDy=0;" parent="1" source="asRpvn_2BDUn43FyMd-X-16" target="asRpvn_2BDUn43FyMd-X-12" edge="1">
          <mxGeometry width="50" height="50" relative="1" as="geometry">
            <mxPoint x="554" y="580" as="sourcePoint" />
            <mxPoint x="654" y="600" as="targetPoint" />
          </mxGeometry>
        </mxCell>
        <mxCell id="asRpvn_2BDUn43FyMd-X-17" value="" style="endArrow=classic;startArrow=classic;html=1;rounded=0;exitX=1;exitY=0.5;exitDx=0;exitDy=0;entryX=0;entryY=0.5;entryDx=0;entryDy=0;" parent="1" source="asRpvn_2BDUn43FyMd-X-1" target="asRpvn_2BDUn43FyMd-X-16" edge="1">
          <mxGeometry width="50" height="50" relative="1" as="geometry">
            <mxPoint x="280" y="580" as="sourcePoint" />
            <mxPoint x="420" y="580" as="targetPoint" />
          </mxGeometry>
        </mxCell>
        <mxCell id="asRpvn_2BDUn43FyMd-X-16" value="&lt;font style=&quot;color: rgb(255, 255, 255); font-size: 16px;&quot;&gt;ENTREGA&lt;/font&gt;" style="rhombus;whiteSpace=wrap;html=1;fillColor=#009900;" parent="1" vertex="1">
          <mxGeometry x="340" y="543.75" width="110" height="72.5" as="geometry" />
        </mxCell>
        <mxCell id="asRpvn_2BDUn43FyMd-X-18" value="(1,1)" style="text;html=1;align=center;verticalAlign=middle;resizable=0;points=[];autosize=1;strokeColor=none;fillColor=none;" parent="1" vertex="1">
          <mxGeometry x="190" y="555" width="50" height="30" as="geometry" />
        </mxCell>
        <mxCell id="asRpvn_2BDUn43FyMd-X-19" value="(0,N)" style="text;html=1;align=center;verticalAlign=middle;resizable=0;points=[];autosize=1;strokeColor=none;fillColor=none;" parent="1" vertex="1">
          <mxGeometry x="539" y="548" width="50" height="30" as="geometry" />
        </mxCell>
        <mxCell id="asRpvn_2BDUn43FyMd-X-20" value="(1,N)" style="text;html=1;align=center;verticalAlign=middle;resizable=0;points=[];autosize=1;strokeColor=none;fillColor=none;" parent="1" vertex="1">
          <mxGeometry x="370" y="513.75" width="50" height="30" as="geometry" />
        </mxCell>
        <mxCell id="asRpvn_2BDUn43FyMd-X-21" value="" style="endArrow=none;html=1;rounded=0;entryX=0.5;entryY=1;entryDx=0;entryDy=0;" parent="1" target="asRpvn_2BDUn43FyMd-X-12" edge="1">
          <mxGeometry width="50" height="50" relative="1" as="geometry">
            <mxPoint x="644" y="630" as="sourcePoint" />
            <mxPoint x="490" y="600" as="targetPoint" />
            <Array as="points" />
          </mxGeometry>
        </mxCell>
        <mxCell id="asRpvn_2BDUn43FyMd-X-22" value="" style="endArrow=classic;html=1;rounded=0;entryX=0.5;entryY=0;entryDx=0;entryDy=0;" parent="1" target="asRpvn_2BDUn43FyMd-X-13" edge="1">
          <mxGeometry width="50" height="50" relative="1" as="geometry">
            <mxPoint x="650" y="630" as="sourcePoint" />
            <mxPoint x="740" y="610" as="targetPoint" />
            <Array as="points">
              <mxPoint x="590" y="630" />
            </Array>
          </mxGeometry>
        </mxCell>
        <mxCell id="asRpvn_2BDUn43FyMd-X-24" value="&lt;font style=&quot;font-size: 20px;&quot;&gt;DESCRI&lt;/font&gt;" style="ellipse;whiteSpace=wrap;html=1;fillColor=#FFD966;" parent="1" vertex="1">
          <mxGeometry x="660" y="650" width="80" height="50" as="geometry" />
        </mxCell>
        <mxCell id="asRpvn_2BDUn43FyMd-X-26" value="" style="endArrow=classic;html=1;rounded=0;entryX=0.5;entryY=0;entryDx=0;entryDy=0;" parent="1" target="asRpvn_2BDUn43FyMd-X-24" edge="1">
          <mxGeometry width="50" height="50" relative="1" as="geometry">
            <mxPoint x="650" y="630" as="sourcePoint" />
            <mxPoint x="770" y="590" as="targetPoint" />
            <Array as="points">
              <mxPoint x="700" y="630" />
            </Array>
          </mxGeometry>
        </mxCell>
        <mxCell id="asRpvn_2BDUn43FyMd-X-29" value="&lt;font color=&quot;#ffffff&quot;&gt;&lt;span style=&quot;font-size: 20px;&quot;&gt;CAMIO&lt;/span&gt;&lt;/font&gt;" style="rounded=0;whiteSpace=wrap;html=1;fillColor=#0066CC;" parent="1" vertex="1">
          <mxGeometry x="70" y="280" width="120" height="60" as="geometry" />
        </mxCell>
        <mxCell id="asRpvn_2BDUn43FyMd-X-30" value="&lt;font style=&quot;font-size: 20px; color: rgb(255, 255, 255);&quot;&gt;DESTINATA&lt;/font&gt;" style="rounded=0;whiteSpace=wrap;html=1;fillColor=#0066CC;" parent="1" vertex="1">
          <mxGeometry x="584" y="280" width="120" height="60" as="geometry" />
        </mxCell>
        <mxCell id="asRpvn_2BDUn43FyMd-X-32" value="" style="endArrow=classic;startArrow=classic;html=1;rounded=0;exitX=0.5;exitY=0;exitDx=0;exitDy=0;entryX=0.5;entryY=1;entryDx=0;entryDy=0;" parent="1" source="asRpvn_2BDUn43FyMd-X-1" target="asRpvn_2BDUn43FyMd-X-29" edge="1">
          <mxGeometry width="50" height="50" relative="1" as="geometry">
            <mxPoint x="390" y="380" as="sourcePoint" />
            <mxPoint x="440" y="330" as="targetPoint" />
          </mxGeometry>
        </mxCell>
        <mxCell id="asRpvn_2BDUn43FyMd-X-33" value="" style="endArrow=classic;startArrow=classic;html=1;rounded=0;exitX=0.5;exitY=0;exitDx=0;exitDy=0;entryX=0.5;entryY=1;entryDx=0;entryDy=0;" parent="1" source="asRpvn_2BDUn43FyMd-X-12" target="asRpvn_2BDUn43FyMd-X-30" edge="1">
          <mxGeometry width="50" height="50" relative="1" as="geometry">
            <mxPoint x="390" y="380" as="sourcePoint" />
            <mxPoint x="440" y="330" as="targetPoint" />
          </mxGeometry>
        </mxCell>
        <mxCell id="asRpvn_2BDUn43FyMd-X-35" value="&lt;font style=&quot;color: rgb(255, 255, 255); font-size: 16px;&quot;&gt;CONDUEIX&lt;/font&gt;" style="rhombus;whiteSpace=wrap;html=1;fillColor=#009900;rotation=-90;" parent="1" vertex="1">
          <mxGeometry x="70" y="400" width="110" height="72.5" as="geometry" />
        </mxCell>
        <mxCell id="asRpvn_2BDUn43FyMd-X-36" value="&lt;font color=&quot;#ffffff&quot;&gt;&lt;span style=&quot;font-size: 16px;&quot;&gt;REB&lt;/span&gt;&lt;/font&gt;" style="rhombus;whiteSpace=wrap;html=1;fillColor=#009900;rotation=-90;" parent="1" vertex="1">
          <mxGeometry x="589" y="410" width="110" height="70" as="geometry" />
        </mxCell>
        <mxCell id="asRpvn_2BDUn43FyMd-X-39" value="(0,N)" style="text;html=1;align=center;verticalAlign=middle;resizable=0;points=[];autosize=1;strokeColor=none;fillColor=none;rotation=-90;" parent="1" vertex="1">
          <mxGeometry x="610" y="510" width="50" height="30" as="geometry" />
        </mxCell>
        <mxCell id="asRpvn_2BDUn43FyMd-X-40" value="(1,1)" style="text;html=1;align=center;verticalAlign=middle;resizable=0;points=[];autosize=1;strokeColor=none;fillColor=none;rotation=-90;" parent="1" vertex="1">
          <mxGeometry x="610" y="350" width="50" height="30" as="geometry" />
        </mxCell>
        <mxCell id="asRpvn_2BDUn43FyMd-X-41" value="&lt;font style=&quot;font-size: 20px;&quot;&gt;&lt;u&gt;DNI&lt;/u&gt;&lt;/font&gt;" style="ellipse;whiteSpace=wrap;html=1;fillColor=#FFD966;" parent="1" vertex="1">
          <mxGeometry x="513.5" y="190" width="80" height="50" as="geometry" />
        </mxCell>
        <mxCell id="asRpvn_2BDUn43FyMd-X-42" value="&lt;font style=&quot;font-size: 21px;&quot;&gt;NOM&lt;/font&gt;" style="ellipse;whiteSpace=wrap;html=1;fillColor=#FFD966;" parent="1" vertex="1">
          <mxGeometry x="603.5" y="190" width="80" height="50" as="geometry" />
        </mxCell>
        <mxCell id="asRpvn_2BDUn43FyMd-X-43" value="&lt;font style=&quot;font-size: 15px;&quot;&gt;ADREÃA&lt;/font&gt;" style="ellipse;whiteSpace=wrap;html=1;fillColor=#FFD966;" parent="1" vertex="1">
          <mxGeometry x="693.5" y="190" width="80" height="50" as="geometry" />
        </mxCell>
        <mxCell id="asRpvn_2BDUn43FyMd-X-44" value="&lt;font style=&quot;font-size: 18px;&quot;&gt;CODI&lt;/font&gt;" style="ellipse;whiteSpace=wrap;html=1;fillColor=#FFD966;" parent="1" vertex="1">
          <mxGeometry x="783.5" y="190" width="80" height="50" as="geometry" />
        </mxCell>
        <mxCell id="asRpvn_2BDUn43FyMd-X-46" value="" style="endArrow=none;html=1;rounded=0;exitX=0.5;exitY=0;exitDx=0;exitDy=0;" parent="1" source="asRpvn_2BDUn43FyMd-X-30" edge="1">
          <mxGeometry width="50" height="50" relative="1" as="geometry">
            <mxPoint x="643.5" y="280" as="sourcePoint" />
            <mxPoint x="644" y="260" as="targetPoint" />
          </mxGeometry>
        </mxCell>
        <mxCell id="asRpvn_2BDUn43FyMd-X-48" value="" style="endArrow=classic;html=1;rounded=0;entryX=0.5;entryY=1;entryDx=0;entryDy=0;" parent="1" target="asRpvn_2BDUn43FyMd-X-44" edge="1">
          <mxGeometry width="50" height="50" relative="1" as="geometry">
            <mxPoint x="643.5" y="260" as="sourcePoint" />
            <mxPoint x="693.5" y="210" as="targetPoint" />
            <Array as="points">
              <mxPoint x="824" y="260" />
            </Array>
          </mxGeometry>
        </mxCell>
        <mxCell id="asRpvn_2BDUn43FyMd-X-49" value="" style="endArrow=classic;html=1;rounded=0;entryX=0.5;entryY=1;entryDx=0;entryDy=0;" parent="1" target="asRpvn_2BDUn43FyMd-X-43" edge="1">
          <mxGeometry width="50" height="50" relative="1" as="geometry">
            <mxPoint x="733.5" y="260" as="sourcePoint" />
            <mxPoint x="783.5" y="210" as="targetPoint" />
          </mxGeometry>
        </mxCell>
        <mxCell id="asRpvn_2BDUn43FyMd-X-50" value="" style="endArrow=classic;html=1;rounded=0;entryX=0.5;entryY=1;entryDx=0;entryDy=0;" parent="1" target="asRpvn_2BDUn43FyMd-X-42" edge="1">
          <mxGeometry width="50" height="50" relative="1" as="geometry">
            <mxPoint x="643.5" y="260" as="sourcePoint" />
            <mxPoint x="693.5" y="210" as="targetPoint" />
          </mxGeometry>
        </mxCell>
        <mxCell id="asRpvn_2BDUn43FyMd-X-52" value="" style="endArrow=classic;html=1;rounded=0;entryX=0.5;entryY=1;entryDx=0;entryDy=0;" parent="1" target="asRpvn_2BDUn43FyMd-X-41" edge="1">
          <mxGeometry width="50" height="50" relative="1" as="geometry">
            <mxPoint x="554" y="260" as="sourcePoint" />
            <mxPoint x="600" y="210" as="targetPoint" />
          </mxGeometry>
        </mxCell>
        <mxCell id="asRpvn_2BDUn43FyMd-X-53" value="" style="endArrow=none;html=1;rounded=0;" parent="1" edge="1">
          <mxGeometry width="50" height="50" relative="1" as="geometry">
            <mxPoint x="550" y="260" as="sourcePoint" />
            <mxPoint x="643.5" y="260" as="targetPoint" />
          </mxGeometry>
        </mxCell>
        <mxCell id="asRpvn_2BDUn43FyMd-X-54" value="&lt;font color=&quot;#ffffff&quot;&gt;&lt;span style=&quot;font-size: 20px;&quot;&gt;MUNICIPI&lt;/span&gt;&lt;/font&gt;" style="rounded=0;whiteSpace=wrap;html=1;fillColor=#0066CC;" parent="1" vertex="1">
          <mxGeometry x="359" y="280" width="120" height="60" as="geometry" />
        </mxCell>
        <mxCell id="asRpvn_2BDUn43FyMd-X-55" value="&lt;font style=&quot;font-size: 20px;&quot;&gt;&lt;u&gt;NOM&lt;/u&gt;&lt;/font&gt;" style="ellipse;whiteSpace=wrap;html=1;fillColor=#FFD966;" parent="1" vertex="1">
          <mxGeometry x="329" y="190" width="80" height="50" as="geometry" />
        </mxCell>
        <mxCell id="asRpvn_2BDUn43FyMd-X-57" value="&lt;font style=&quot;font-size: 20px;&quot;&gt;PROV&lt;/font&gt;" style="ellipse;whiteSpace=wrap;html=1;fillColor=#FFD966;" parent="1" vertex="1">
          <mxGeometry x="419" y="190" width="80" height="50" as="geometry" />
        </mxCell>
        <mxCell id="asRpvn_2BDUn43FyMd-X-60" value="" style="endArrow=none;html=1;rounded=0;" parent="1" edge="1">
          <mxGeometry width="50" height="50" relative="1" as="geometry">
            <mxPoint x="419" y="280" as="sourcePoint" />
            <mxPoint x="419" y="260" as="targetPoint" />
            <Array as="points" />
          </mxGeometry>
        </mxCell>
        <mxCell id="asRpvn_2BDUn43FyMd-X-61" value="" style="endArrow=classic;html=1;rounded=0;entryX=0.5;entryY=1;entryDx=0;entryDy=0;" parent="1" target="asRpvn_2BDUn43FyMd-X-57" edge="1">
          <mxGeometry width="50" height="50" relative="1" as="geometry">
            <mxPoint x="419" y="260" as="sourcePoint" />
            <mxPoint x="469" y="210" as="targetPoint" />
            <Array as="points">
              <mxPoint x="459" y="260" />
            </Array>
          </mxGeometry>
        </mxCell>
        <mxCell id="asRpvn_2BDUn43FyMd-X-62" value="" style="endArrow=classic;html=1;rounded=0;entryX=0.5;entryY=1;entryDx=0;entryDy=0;" parent="1" target="asRpvn_2BDUn43FyMd-X-55" edge="1">
          <mxGeometry width="50" height="50" relative="1" as="geometry">
            <mxPoint x="419" y="260" as="sourcePoint" />
            <mxPoint x="374" y="240" as="targetPoint" />
            <Array as="points">
              <mxPoint x="369" y="260" />
            </Array>
          </mxGeometry>
        </mxCell>
        <mxCell id="asRpvn_2BDUn43FyMd-X-63" value="" style="endArrow=classic;startArrow=classic;html=1;rounded=0;entryX=0;entryY=0.5;entryDx=0;entryDy=0;" parent="1" source="asRpvn_2BDUn43FyMd-X-65" target="asRpvn_2BDUn43FyMd-X-30" edge="1">
          <mxGeometry width="50" height="50" relative="1" as="geometry">
            <mxPoint x="480" y="310" as="sourcePoint" />
            <mxPoint x="530" y="260" as="targetPoint" />
          </mxGeometry>
        </mxCell>
        <mxCell id="asRpvn_2BDUn43FyMd-X-66" value="" style="endArrow=classic;startArrow=classic;html=1;rounded=0;entryX=0;entryY=0.5;entryDx=0;entryDy=0;" parent="1" target="asRpvn_2BDUn43FyMd-X-65" edge="1">
          <mxGeometry width="50" height="50" relative="1" as="geometry">
            <mxPoint x="480" y="310" as="sourcePoint" />
            <mxPoint x="584" y="310" as="targetPoint" />
          </mxGeometry>
        </mxCell>
        <mxCell id="asRpvn_2BDUn43FyMd-X-65" value="&lt;font color=&quot;#ffffff&quot;&gt;&lt;span style=&quot;font-size: 16px;&quot;&gt;VIU&lt;/span&gt;&lt;/font&gt;" style="rhombus;whiteSpace=wrap;html=1;fillColor=#009900;rotation=0;" parent="1" vertex="1">
          <mxGeometry x="499" y="285" width="70" height="50" as="geometry" />
        </mxCell>
        <mxCell id="asRpvn_2BDUn43FyMd-X-67" value="(1,N)" style="text;html=1;align=center;verticalAlign=middle;resizable=0;points=[];autosize=1;strokeColor=none;fillColor=none;" parent="1" vertex="1">
          <mxGeometry x="509" y="330" width="50" height="30" as="geometry" />
        </mxCell>
        <mxCell id="asRpvn_2BDUn43FyMd-X-68" value="(0,1)" style="text;html=1;align=center;verticalAlign=middle;resizable=0;points=[];autosize=1;strokeColor=none;fillColor=none;" parent="1" vertex="1">
          <mxGeometry x="470" y="280" width="50" height="30" as="geometry" />
        </mxCell>
        <mxCell id="asRpvn_2BDUn43FyMd-X-69" value="(1,N)" style="text;html=1;align=center;verticalAlign=middle;resizable=0;points=[];autosize=1;strokeColor=none;fillColor=none;" parent="1" vertex="1">
          <mxGeometry x="543.5" y="280" width="50" height="30" as="geometry" />
        </mxCell>
        <mxCell id="asRpvn_2BDUn43FyMd-X-70" value="DATA" style="ellipse;whiteSpace=wrap;html=1;rotation=-90;fillColor=#FFE599;" parent="1" vertex="1">
          <mxGeometry x="115" y="416.25" width="180" height="40" as="geometry" />
        </mxCell>
        <mxCell id="asRpvn_2BDUn43FyMd-X-72" value="" style="endArrow=none;html=1;rounded=0;entryX=0.5;entryY=0;entryDx=0;entryDy=0;exitX=0.5;exitY=1;exitDx=0;exitDy=0;" parent="1" source="asRpvn_2BDUn43FyMd-X-35" target="asRpvn_2BDUn43FyMd-X-70" edge="1">
          <mxGeometry width="50" height="50" relative="1" as="geometry">
            <mxPoint x="165" y="430" as="sourcePoint" />
            <mxPoint x="205" y="390" as="targetPoint" />
          </mxGeometry>
        </mxCell>
        <mxCell id="asRpvn_2BDUn43FyMd-X-73" value="&lt;font style=&quot;font-size: 20px;&quot;&gt;MOD&lt;/font&gt;" style="ellipse;whiteSpace=wrap;html=1;fillColor=#FFD966;" parent="1" vertex="1">
          <mxGeometry x="90" y="185" width="80" height="50" as="geometry" />
        </mxCell>
        <mxCell id="asRpvn_2BDUn43FyMd-X-74" value="&lt;font style=&quot;font-size: 20px;&quot;&gt;POT&lt;/font&gt;" style="ellipse;whiteSpace=wrap;html=1;fillColor=#FFD966;" parent="1" vertex="1">
          <mxGeometry x="180" y="185" width="80" height="50" as="geometry" />
        </mxCell>
        <mxCell id="asRpvn_2BDUn43FyMd-X-75" value="" style="endArrow=classic;html=1;rounded=0;entryX=0.5;entryY=1;entryDx=0;entryDy=0;" parent="1" target="asRpvn_2BDUn43FyMd-X-74" edge="1">
          <mxGeometry width="50" height="50" relative="1" as="geometry">
            <mxPoint x="180" y="255" as="sourcePoint" />
            <mxPoint x="230" y="205" as="targetPoint" />
            <Array as="points">
              <mxPoint x="220" y="255" />
            </Array>
          </mxGeometry>
        </mxCell>
        <mxCell id="asRpvn_2BDUn43FyMd-X-76" value="" style="endArrow=classic;html=1;rounded=0;entryX=0.5;entryY=1;entryDx=0;entryDy=0;" parent="1" target="asRpvn_2BDUn43FyMd-X-73" edge="1">
          <mxGeometry width="50" height="50" relative="1" as="geometry">
            <mxPoint x="180" y="255" as="sourcePoint" />
            <mxPoint x="135" y="235" as="targetPoint" />
            <Array as="points">
              <mxPoint x="130" y="255" />
            </Array>
          </mxGeometry>
        </mxCell>
        <mxCell id="asRpvn_2BDUn43FyMd-X-77" value="&lt;font style=&quot;font-size: 20px;&quot;&gt;&lt;u&gt;MATR&lt;/u&gt;&lt;/font&gt;" style="ellipse;whiteSpace=wrap;html=1;fillColor=#FFD966;" parent="1" vertex="1">
          <mxGeometry y="185" width="80" height="50" as="geometry" />
        </mxCell>
        <mxCell id="asRpvn_2BDUn43FyMd-X-78" value="" style="endArrow=classic;html=1;rounded=0;entryX=0.5;entryY=1;entryDx=0;entryDy=0;" parent="1" target="asRpvn_2BDUn43FyMd-X-77" edge="1">
          <mxGeometry width="50" height="50" relative="1" as="geometry">
            <mxPoint x="130" y="250" as="sourcePoint" />
            <mxPoint x="50" y="255" as="targetPoint" />
            <Array as="points">
              <mxPoint x="40" y="250" />
            </Array>
          </mxGeometry>
        </mxCell>
        <mxCell id="asRpvn_2BDUn43FyMd-X-79" value="" style="endArrow=classic;html=1;rounded=0;exitX=0.5;exitY=0;exitDx=0;exitDy=0;" parent="1" source="asRpvn_2BDUn43FyMd-X-29" edge="1">
          <mxGeometry width="50" height="50" relative="1" as="geometry">
            <mxPoint x="80" y="300" as="sourcePoint" />
            <mxPoint x="130" y="250" as="targetPoint" />
          </mxGeometry>
        </mxCell>
        <mxCell id="asRpvn_2BDUn43FyMd-X-80" value="(NM)" style="text;html=1;align=center;verticalAlign=middle;resizable=0;points=[];autosize=1;strokeColor=none;fillColor=none;rotation=-90;" parent="1" vertex="1">
          <mxGeometry x="50" y="421.25" width="50" height="30" as="geometry" />
        </mxCell>
        <mxCell id="asRpvn_2BDUn43FyMd-X-82" value="(1,N)" style="text;html=1;align=center;verticalAlign=middle;resizable=0;points=[];autosize=1;strokeColor=none;fillColor=none;rotation=0;flipH=0;" parent="1" vertex="1">
          <mxGeometry x="75" y="518" width="50" height="30" as="geometry" />
        </mxCell>
        <mxCell id="asRpvn_2BDUn43FyMd-X-83" value="(0,M)" style="text;html=1;align=center;verticalAlign=middle;resizable=0;points=[];autosize=1;strokeColor=none;fillColor=none;" parent="1" vertex="1">
          <mxGeometry x="65" y="335" width="50" height="30" as="geometry" />
        </mxCell>
      </root>
    </mxGraphModel>
  </diagram>
</mxfile>
